<svg width="94" height="28" viewBox="0 0 94 28" fill="none" xmlns="http://www.w3.org/2000/svg">
<g clip-path="url(#clip0_405_6433)">
<path d="M17.943 0C16.1252 0 14.6361 1.48096 14.6361 3.2888C14.6361 5.09663 16.1252 6.54424 17.943 6.54424C19.7607 6.54424 21.2163 5.09663 21.2163 3.2888C21.2163 1.48096 19.7607 0 17.943 0ZM4.41363 7.29139C3.86361 7.29139 3.4209 7.73167 3.4209 8.27869C3.4209 8.82572 3.86361 9.266 4.41363 9.266H15.1995C15.5685 9.24599 16.6417 9.33271 17.1246 9.95311C17.6344 10.6135 17.3996 11.7676 17.1246 12.6148C17.1246 12.6148 13.9922 22.6013 13.7574 23.3485C13.261 24.9428 11.7049 25.9435 10.209 25.2897C8.97484 24.7494 8.89434 23.5819 9.31022 22.4479C9.36388 22.3078 9.43096 22.2077 9.49133 22.0876C9.49133 22.0876 12.1744 17.0644 12.7647 15.6635C13.2007 14.6361 12.6372 13.929 11.289 13.929H5.15818C4.60816 13.929 4.16545 14.3693 4.16545 14.9163C4.16545 15.4633 4.60816 15.9036 5.15818 15.9036H6.90217C7.27109 15.8836 8.37115 15.9303 8.79373 16.5907C9.58523 17.8182 9.04191 18.2185 7.86137 22.3011C7.78758 22.5146 7.72051 22.7347 7.68026 22.9615C7.68026 22.9615 6.86863 25.8167 9.45108 26.9975C11.839 28.0849 14.6093 26.9241 15.4343 24.3358C16.0112 22.5146 19.0095 13.2152 19.0095 13.2152C19.6199 11.3207 19.5193 9.80635 18.6808 8.73232C17.5204 7.25136 15.4477 7.28472 15.1325 7.29806H4.41363V7.29139ZM0.992732 10.5535C0.442704 10.5535 0 10.9938 0 11.5408C0 12.0878 0.442704 12.5548 0.992732 12.5548H13.6769C14.2269 12.5548 14.6696 12.0878 14.6696 11.5408C14.6696 10.9938 14.2269 10.5535 13.6769 10.5535H0.992732Z" fill="#323941"/>
<path d="M32.675 6.48924C31.1337 6.48924 28.39 6.67733 28.39 8.14307C28.39 10.2768 33.0071 10.2963 33.0071 11.5156C33.0071 11.8852 32.6218 12.216 31.7582 12.216C30.5491 12.216 29.8648 12.1447 28.7487 11.9566C28.2771 11.8788 28.1176 12.7867 28.5096 12.884C29.2403 13.0721 30.383 13.2342 32.4425 13.2342C33.9837 13.2342 36.6676 12.9619 36.6676 11.4896C36.6676 9.35587 32.0837 9.3429 32.0837 8.20792C32.0837 7.83824 32.469 7.50748 33.3327 7.50748H36.2491C36.8404 7.50748 36.8404 6.48924 36.2491 6.48924H32.675V6.48924ZM43.6033 6.48924C41.9292 6.48924 39.1058 6.58653 39.1058 8.84351V10.9059C39.1058 13.1694 41.9292 13.2602 43.6033 13.2602C45.3771 13.2602 46.3271 13.0981 47.0579 12.91C47.4565 12.8127 47.2904 11.8982 46.8187 11.9825C45.7026 12.1706 45.025 12.242 43.8093 12.242C42.6799 12.242 42.3809 11.989 42.3809 11.3145V10.5298C42.3809 10.2639 42.4474 10.212 42.7397 10.212H45.0317C45.4768 10.212 45.4768 9.3429 45.0317 9.3429H42.7397C42.4474 9.3429 42.3809 9.29101 42.3809 9.0251V8.4414C42.3809 7.76042 42.6799 7.51396 43.8093 7.51396H46.6991C47.2904 7.51396 47.2904 6.49573 46.6991 6.49573H43.6033V6.48924ZM53.9338 6.48924C52.2596 6.48924 49.4362 6.58653 49.4362 8.84351V10.9967C49.4362 13.0981 52.1401 13.2083 53.8142 13.2083C55.2359 13.2083 58.3383 13.137 58.3383 11.1718V10.5298C58.3383 9.72555 57.8002 9.51152 56.7306 9.51152H54.3789C54.06 9.51152 54.06 10.3806 54.3789 10.3806H55.0964C55.3887 10.3806 55.4219 10.439 55.4219 10.6984V11.2497C55.4219 11.9306 54.7775 12.2938 53.8142 12.2938C52.8509 12.2938 52.5055 11.9242 52.5055 11.2497V8.42843C52.5055 7.74745 53.0103 7.50099 54.1397 7.50099H57.0296C57.6209 7.50099 57.6209 6.48276 57.0296 6.48276H53.9338V6.48924ZM60.152 6.48924C59.7467 6.48924 59.7534 6.65138 59.853 6.98215L61.5803 12.0993C61.8128 12.7284 62.3177 13.1434 63.3076 13.1434C64.2974 13.1434 64.7691 12.7219 65.0016 12.1576C65.0016 12.1576 65.6859 10.1601 65.8055 9.80337C65.8852 9.55692 66.0845 9.55692 66.1642 9.80337C66.2639 10.1082 66.9415 12.0993 66.9415 12.0993C67.2737 12.7608 67.6258 13.1434 68.6356 13.1434C69.8247 13.1434 70.3429 12.67 70.5422 12.0993C70.6684 11.7426 71.5852 8.68785 72.1499 6.92378C72.2629 6.58004 72.2296 6.48924 71.9108 6.48924H70.8677C70.5422 7.56585 69.5391 10.8022 69.4992 10.9384C69.4261 11.1848 69.2401 11.1783 69.1405 10.9384C69.074 10.7697 67.9513 7.77339 67.7719 7.30643C67.5859 6.83946 67.0744 6.49573 66.4898 6.49573C65.9649 6.49573 65.4733 6.77461 65.3006 7.30643C65.1279 7.83824 64.1845 10.7957 64.138 10.9384C64.0649 11.1848 63.859 11.1848 63.7793 10.9384C63.7261 10.7892 62.703 7.52045 62.3775 6.48924H60.152V6.48924ZM78.4611 6.48924C76.8401 6.48924 74.2625 6.47627 74.2625 8.43492V12.5014C74.2625 12.91 74.5748 13.1434 75.6311 13.1434C76.6873 13.1434 76.9996 12.8581 76.9996 12.5014V10.64C76.9996 10.3741 77.066 10.3222 77.3583 10.3222H79.5041C79.7964 10.3222 79.8629 10.3806 79.8629 10.64V12.5014C79.8629 12.8581 80.1751 13.1434 81.2314 13.1434C82.2877 13.1434 82.6 12.9165 82.6 12.5014V8.43492C82.6 6.47627 80.0821 6.48924 78.4611 6.48924ZM84.387 6.48924C84.1213 6.48924 84.0083 6.68381 84.2077 6.92378C84.8786 7.74096 86.4531 9.66718 86.5594 9.80337C86.6923 9.96551 86.8849 10.1925 86.8849 10.4454V12.5079C86.8849 12.8646 87.2304 13.1499 88.2867 13.1499C89.343 13.1499 89.715 12.9229 89.715 12.5079V10.2703C89.715 10.0044 89.8944 9.86174 90.0405 9.68663C90.1468 9.55044 91.6349 7.7669 92.3325 6.92378C92.5318 6.67732 92.4255 6.48924 92.1531 6.48924H90.9042C90.9042 6.48924 89.3031 8.53869 89.1769 8.70082C89.0507 8.86296 88.7982 8.85648 88.672 8.70082C88.5458 8.54517 87.0045 6.48924 87.0045 6.48924H84.387V6.48924ZM93.3755 6.48924C93.0301 6.48924 92.751 6.76812 92.751 7.09889C92.751 7.42965 93.0301 7.70853 93.3755 7.70853C93.7143 7.70853 94 7.42965 94 7.09889C94 6.76164 93.721 6.48924 93.3755 6.48924ZM93.3755 6.63193C93.628 6.63193 93.8538 6.85244 93.8538 7.09889C93.8538 7.34534 93.628 7.53342 93.3755 7.53342C93.1231 7.53342 92.9304 7.34534 92.9304 7.09889C92.9304 6.85244 93.1231 6.63193 93.3755 6.63193ZM93.1098 6.86541C93.0898 6.86541 93.0832 6.87189 93.0832 6.89135V7.26751C93.0832 7.29346 93.1031 7.29346 93.1696 7.29346C93.2426 7.29346 93.2559 7.28697 93.2559 7.26751V6.94972C93.2559 6.93026 93.2626 6.92378 93.2825 6.92378H93.3689C93.4287 6.92378 93.4552 6.9562 93.4552 6.98215C93.4552 7.02755 93.3822 7.04052 93.3091 7.04052H93.2825C93.2493 7.04052 93.2559 7.1378 93.2825 7.15726C93.3556 7.21563 93.422 7.274 93.4619 7.29994C93.4752 7.31291 93.5017 7.29994 93.5217 7.29994H93.701C93.721 7.29994 93.721 7.28697 93.701 7.274L93.4619 7.09889C93.5217 7.09889 93.701 7.10537 93.701 6.98215C93.701 6.89783 93.5881 6.86541 93.4353 6.86541H93.1098V6.86541ZM78.4611 7.35831C79.5573 7.35831 79.8629 7.64368 79.8629 8.31818V9.12887C79.8629 9.41424 79.8031 9.44667 79.5374 9.44667H77.365C77.0727 9.44667 77.0062 9.3883 77.0062 9.12887V8.31818C77.0062 7.64368 77.365 7.35831 78.4611 7.35831Z" fill="#323941"/>
<path d="M31.5946 16.3483C31.1408 16.3483 30.7931 16.4868 30.5515 16.7638C30.3099 17.0408 30.1891 17.4327 30.1891 17.9395C30.1891 18.4523 30.3217 18.8471 30.5869 19.1241C30.858 19.4011 31.2204 19.5396 31.6742 19.5396C31.9158 19.5396 32.1192 19.5072 32.2842 19.4424C32.4551 19.3775 32.6172 19.3039 32.7704 19.2214C32.8706 19.3039 32.9472 19.4041 33.0002 19.5219C33.0592 19.6339 33.0886 19.7665 33.0886 19.9197C33.0886 20.1614 32.9531 20.3676 32.682 20.5385C32.4168 20.7036 32.0101 20.7861 31.462 20.7861C31.0672 20.7861 30.6959 20.7301 30.3482 20.6181C30.0005 20.5061 29.697 20.3352 29.4377 20.1054C29.1783 19.8696 28.9721 19.575 28.8188 19.2214C28.6715 18.8619 28.5978 18.4346 28.5978 17.9395C28.5978 17.4799 28.6686 17.0762 28.81 16.7285C28.9573 16.3748 29.1548 16.0772 29.4023 15.8356C29.6557 15.594 29.9504 15.4113 30.2863 15.2875C30.6222 15.1637 30.9817 15.1019 31.3648 15.1019C31.907 15.1019 32.3254 15.1903 32.6201 15.3671C32.9207 15.5439 33.0709 15.7708 33.0709 16.0478C33.0709 16.201 33.0326 16.3336 32.956 16.4456C32.8794 16.5575 32.791 16.6459 32.6908 16.7108C32.5376 16.6106 32.3726 16.5251 32.1958 16.4544C32.0249 16.3837 31.8245 16.3483 31.5946 16.3483Z" fill="#323941"/>
<path d="M35.1832 15.429C35.2834 15.37 35.4337 15.314 35.634 15.261C35.8403 15.2079 36.0466 15.1814 36.2528 15.1814C36.5475 15.1814 36.8068 15.2256 37.0308 15.314C37.2606 15.3965 37.4079 15.5291 37.4728 15.7118C37.5789 16.0183 37.6938 16.3748 37.8175 16.7815C37.9413 17.1881 38.0651 17.6095 38.1888 18.0456C38.3126 18.4758 38.4334 18.9031 38.5513 19.3274C38.6691 19.7459 38.7723 20.1172 38.8607 20.4413C38.79 20.5238 38.6839 20.5886 38.5424 20.6358C38.401 20.6888 38.233 20.7153 38.0385 20.7153C37.8971 20.7153 37.7763 20.7036 37.6761 20.68C37.5818 20.6564 37.5022 20.6211 37.4374 20.5739C37.3785 20.5268 37.3284 20.4649 37.2871 20.3883C37.2518 20.3116 37.2194 20.2232 37.1899 20.1231L37.0308 19.5131H35.4307C35.3836 19.6899 35.3364 19.8726 35.2893 20.0612C35.2421 20.2498 35.195 20.4325 35.1478 20.6093C35.0653 20.6387 34.9769 20.6623 34.8826 20.68C34.7942 20.7036 34.6852 20.7153 34.5555 20.7153C34.255 20.7153 34.031 20.6653 33.8837 20.5651C33.7422 20.459 33.6715 20.3146 33.6715 20.1319C33.6715 20.0494 33.6833 19.9669 33.7069 19.8844C33.7305 19.8019 33.757 19.7046 33.7864 19.5927C33.8277 19.4335 33.8837 19.2361 33.9544 19.0004C34.031 18.7646 34.1135 18.5112 34.2019 18.2401C34.2903 17.9631 34.3846 17.6802 34.4848 17.3915C34.585 17.1027 34.6793 16.8316 34.7677 16.5782C34.8561 16.3189 34.9357 16.089 35.0064 15.8886C35.083 15.6883 35.1419 15.535 35.1832 15.429ZM36.244 16.5693C36.1615 16.8169 36.0672 17.0938 35.9611 17.4003C35.8609 17.7009 35.7696 18.0073 35.6871 18.3197H36.7832C36.7007 18.0014 36.6153 17.692 36.5269 17.3915C36.4444 17.085 36.3678 16.811 36.297 16.5693H36.244Z" fill="#323941"/>
<path d="M40.4073 20.6535C40.1539 20.6535 39.9535 20.5798 39.8062 20.4325C39.6588 20.2851 39.5851 20.0848 39.5851 19.8313V15.261C39.65 15.2492 39.7531 15.2345 39.8946 15.2168C40.036 15.1932 40.1715 15.1814 40.3012 15.1814C40.4367 15.1814 40.5546 15.1932 40.6548 15.2168C40.7609 15.2345 40.8493 15.2698 40.92 15.3229C40.9907 15.3759 41.0438 15.4496 41.0791 15.5439C41.1145 15.6382 41.1322 15.7619 41.1322 15.9152V19.407H43.1566C43.1978 19.4718 43.2361 19.5602 43.2715 19.6722C43.3068 19.7783 43.3245 19.8903 43.3245 20.0081C43.3245 20.2439 43.2744 20.4118 43.1742 20.512C43.0741 20.6063 42.9414 20.6535 42.7764 20.6535H40.4073Z" fill="#323941"/>
<path d="M45.6645 20.5916C45.5996 20.6093 45.4965 20.6269 45.3551 20.6446C45.2195 20.6623 45.084 20.6711 44.9484 20.6711C44.8129 20.6711 44.692 20.6594 44.586 20.6358C44.4858 20.6181 44.4003 20.5827 44.3296 20.5297C44.2589 20.4767 44.2058 20.403 44.1705 20.3087C44.1351 20.2144 44.1174 20.0906 44.1174 19.9374V15.2698C44.1823 15.258 44.2854 15.2433 44.4268 15.2256C44.5683 15.2021 44.7038 15.1903 44.8335 15.1903C44.969 15.1903 45.0869 15.2021 45.1871 15.2256C45.2932 15.2433 45.3816 15.2787 45.4523 15.3317C45.523 15.3848 45.5761 15.4584 45.6114 15.5527C45.6468 15.647 45.6645 15.7708 45.6645 15.924V20.5916Z" fill="#323941"/>
<path d="M50.5768 15.2698C50.6181 15.3347 50.6534 15.4231 50.6829 15.535C50.7183 15.6411 50.7359 15.7531 50.7359 15.871C50.7359 16.1008 50.6858 16.2658 50.5856 16.366C50.4914 16.4603 50.3617 16.5074 50.1967 16.5074H48.3403V17.5064H50.2762C50.3234 17.5712 50.3617 17.6567 50.3912 17.7627C50.4265 17.8688 50.4442 17.9808 50.4442 18.0987C50.4442 18.3226 50.3941 18.4847 50.2939 18.5849C50.1996 18.6792 50.07 18.7263 49.905 18.7263H48.3579V20.5916C48.2931 20.6093 48.19 20.6269 48.0485 20.6446C47.913 20.6623 47.7774 20.6711 47.6419 20.6711C47.5063 20.6711 47.3855 20.6594 47.2794 20.6358C47.1793 20.6181 47.0938 20.5827 47.0231 20.5297C46.9524 20.4767 46.8993 20.403 46.864 20.3087C46.8286 20.2144 46.8109 20.0906 46.8109 19.9374V16.092C46.8109 15.8385 46.8846 15.6382 47.0319 15.4908C47.1793 15.3435 47.3796 15.2698 47.633 15.2698H50.5768Z" fill="#323941"/>
<path d="M51.1989 17.9395C51.1989 17.4799 51.2696 17.0732 51.411 16.7196C51.5584 16.366 51.7558 16.0713 52.0033 15.8356C52.2567 15.594 52.5514 15.4113 52.8873 15.2875C53.2291 15.1637 53.5975 15.1019 53.9923 15.1019C54.3872 15.1019 54.7526 15.1637 55.0885 15.2875C55.4303 15.4113 55.728 15.594 55.9814 15.8356C56.2348 16.0713 56.4322 16.366 56.5737 16.7196C56.721 17.0732 56.7947 17.4799 56.7947 17.9395C56.7947 18.3992 56.7239 18.8088 56.5825 19.1683C56.4411 19.5219 56.2436 19.8195 55.9902 20.0612C55.7427 20.2969 55.448 20.4767 55.1062 20.6004C54.7644 20.7242 54.3931 20.7861 53.9923 20.7861C53.5916 20.7861 53.2203 20.7242 52.8785 20.6004C52.5367 20.4708 52.242 20.2851 51.9945 20.0435C51.747 19.8019 51.5525 19.5043 51.411 19.1506C51.2696 18.797 51.1989 18.3933 51.1989 17.9395ZM52.7901 17.9395C52.7901 18.4758 52.8991 18.8766 53.1172 19.1418C53.3352 19.407 53.627 19.5396 53.9923 19.5396C54.3636 19.5396 54.6583 19.407 54.8764 19.1418C55.0944 18.8766 55.2034 18.4758 55.2034 17.9395C55.2034 17.4091 55.0944 17.0113 54.8764 16.7461C54.6642 16.4809 54.3725 16.3483 54.0012 16.3483C53.6358 16.3483 53.3411 16.4809 53.1172 16.7461C52.8991 17.0054 52.7901 17.4032 52.7901 17.9395Z" fill="#323941"/>
<path d="M59.218 18.8943V20.5916C59.1531 20.6093 59.05 20.6269 58.9086 20.6446C58.773 20.6623 58.6375 20.6711 58.5019 20.6711C58.3664 20.6711 58.2455 20.6594 58.1395 20.6358C58.0393 20.6181 57.9538 20.5827 57.8831 20.5297C57.8183 20.4767 57.7682 20.403 57.7328 20.3087C57.6975 20.2144 57.6798 20.0906 57.6798 19.9374V15.7737C57.6798 15.65 57.7122 15.5557 57.777 15.4908C57.8477 15.4201 57.942 15.3641 58.0599 15.3229C58.2603 15.2521 58.4931 15.2021 58.7583 15.1726C59.0235 15.1372 59.3064 15.1195 59.6069 15.1195C60.4202 15.1195 61.0331 15.2905 61.4457 15.6323C61.8582 15.9741 62.0645 16.4367 62.0645 17.0202C62.0645 17.3856 61.9702 17.6979 61.7816 17.9572C61.593 18.2165 61.3691 18.4169 61.1097 18.5584C61.3219 18.8471 61.5311 19.1182 61.7374 19.3716C61.9437 19.6251 62.1057 19.8549 62.2236 20.0612C62.1647 20.2674 62.0556 20.4266 61.8965 20.5385C61.7433 20.6446 61.5694 20.6977 61.375 20.6977C61.2453 20.6977 61.1333 20.6829 61.039 20.6535C60.9447 20.624 60.8622 20.5827 60.7915 20.5297C60.7208 20.4767 60.656 20.4118 60.597 20.3352C60.5381 20.2586 60.4821 20.1761 60.4291 20.0877L59.6865 18.8943H59.218ZM59.7749 17.7185C59.9988 17.7185 60.1756 17.6626 60.3053 17.5506C60.435 17.4327 60.4998 17.2618 60.4998 17.0379C60.4998 16.8139 60.4261 16.6459 60.2788 16.534C60.1373 16.4161 59.9104 16.3572 59.5981 16.3572C59.5097 16.3572 59.439 16.3601 59.3859 16.366C59.3329 16.3719 59.274 16.3807 59.2091 16.3925V17.7185H59.7749Z" fill="#323941"/>
<path d="M67.92 20.4413C67.8375 20.5238 67.7166 20.5857 67.5575 20.6269C67.4043 20.6741 67.2186 20.6977 67.0006 20.6977C66.7825 20.6977 66.5763 20.6653 66.3818 20.6004C66.1873 20.5356 66.0282 20.3794 65.9044 20.1319L65.0292 18.3462C64.9408 18.1635 64.8613 17.9926 64.7906 17.8335C64.7198 17.6685 64.6432 17.4799 64.5607 17.2677L64.5077 17.2765C64.5312 17.5948 64.543 17.9189 64.543 18.249C64.5489 18.579 64.5519 18.9031 64.5519 19.2214V20.5916C64.487 20.6093 64.3869 20.6269 64.2513 20.6446C64.1217 20.6623 63.992 20.6711 63.8623 20.6711C63.7327 20.6711 63.6178 20.6623 63.5176 20.6446C63.4174 20.6269 63.3349 20.5916 63.2701 20.5385C63.2052 20.4855 63.1551 20.4148 63.1198 20.3264C63.0844 20.2321 63.0667 20.1113 63.0667 19.9639V15.5439C63.1492 15.426 63.2759 15.3376 63.4469 15.2787C63.6178 15.2197 63.8005 15.1903 63.9949 15.1903C64.213 15.1903 64.4193 15.2256 64.6138 15.2964C64.8141 15.3612 64.9733 15.5144 65.0911 15.756L65.9751 17.5417C66.0635 17.7244 66.1431 17.8983 66.2138 18.0633C66.2845 18.2224 66.3612 18.4081 66.4437 18.6202L66.4879 18.6114C66.4643 18.2932 66.4496 17.9749 66.4437 17.6567C66.4378 17.3384 66.4348 17.0202 66.4348 16.7019V15.2698C66.4996 15.2521 66.5969 15.2345 66.7265 15.2168C66.8621 15.1991 66.9947 15.1903 67.1243 15.1903C67.3837 15.1903 67.5811 15.2374 67.7166 15.3317C67.8522 15.4201 67.92 15.6087 67.92 15.8975V20.4413Z" fill="#323941"/>
<path d="M70.6136 20.5916C70.5488 20.6093 70.4457 20.6269 70.3042 20.6446C70.1687 20.6623 70.0331 20.6711 69.8976 20.6711C69.762 20.6711 69.6412 20.6594 69.5351 20.6358C69.435 20.6181 69.3495 20.5827 69.2788 20.5297C69.2081 20.4767 69.155 20.403 69.1197 20.3087C69.0843 20.2144 69.0666 20.0906 69.0666 19.9374V15.2698C69.1314 15.258 69.2346 15.2433 69.376 15.2256C69.5175 15.2021 69.653 15.1903 69.7827 15.1903C69.9182 15.1903 70.0361 15.2021 70.1363 15.2256C70.2424 15.2433 70.3308 15.2787 70.4015 15.3317C70.4722 15.3848 70.5252 15.4584 70.5606 15.5527C70.596 15.647 70.6136 15.7708 70.6136 15.924V20.5916Z" fill="#323941"/>
<path d="M72.9005 15.429C73.0007 15.37 73.1509 15.314 73.3513 15.261C73.5576 15.2079 73.7639 15.1814 73.9701 15.1814C74.2648 15.1814 74.5241 15.2256 74.7481 15.314C74.9779 15.3965 75.1252 15.5291 75.1901 15.7118C75.2961 16.0183 75.4111 16.3748 75.5348 16.7815C75.6586 17.1881 75.7824 17.6095 75.9061 18.0456C76.0299 18.4758 76.1507 18.9031 76.2686 19.3274C76.3864 19.7459 76.4896 20.1172 76.578 20.4413C76.5072 20.5238 76.4012 20.5886 76.2597 20.6358C76.1183 20.6888 75.9503 20.7153 75.7558 20.7153C75.6144 20.7153 75.4936 20.7036 75.3934 20.68C75.2991 20.6564 75.2195 20.6211 75.1547 20.5739C75.0958 20.5268 75.0457 20.4649 75.0044 20.3883C74.9691 20.3116 74.9366 20.2232 74.9072 20.1231L74.7481 19.5131H73.148C73.1008 19.6899 73.0537 19.8726 73.0066 20.0612C72.9594 20.2498 72.9123 20.4325 72.8651 20.6093C72.7826 20.6387 72.6942 20.6623 72.5999 20.68C72.5115 20.7036 72.4025 20.7153 72.2728 20.7153C71.9723 20.7153 71.7483 20.6653 71.601 20.5651C71.4595 20.459 71.3888 20.3146 71.3888 20.1319C71.3888 20.0494 71.4006 19.9669 71.4242 19.8844C71.4477 19.8019 71.4743 19.7046 71.5037 19.5927C71.545 19.4335 71.601 19.2361 71.6717 19.0004C71.7483 18.7646 71.8308 18.5112 71.9192 18.2401C72.0076 17.9631 72.1019 17.6802 72.2021 17.3915C72.3023 17.1027 72.3966 16.8316 72.485 16.5782C72.5734 16.3189 72.6529 16.089 72.7237 15.8886C72.8003 15.6883 72.8592 15.535 72.9005 15.429ZM73.9613 16.5693C73.8788 16.8169 73.7845 17.0938 73.6784 17.4003C73.5782 17.7009 73.4869 18.0073 73.4044 18.3197H74.5005C74.418 18.0014 74.3326 17.692 74.2442 17.3915C74.1617 17.085 74.0851 16.811 74.0143 16.5693H73.9613Z" fill="#323941"/>
</g>
<defs>
<clipPath id="clip0_405_6433">
<rect width="94" height="27.4044" fill="white"/>
</clipPath>
</defs>
</svg>
